<?xml version="1.0" encoding="UTF-8" standalone="no"?>
<svg width="32px" height="32px" viewBox="0 0 32 32" version="1.1" xmlns="http://www.w3.org/2000/svg" xmlns:xlink="http://www.w3.org/1999/xlink">
    <!-- Generator: Sketch 39.1 (31720) - http://www.bohemiancoding.com/sketch -->
    <title>beach</title>
    <desc>Created with Sketch.</desc>
    <defs>
        <path d="M27.8609715,19.7051926 C27.8252373,19.839196 27.7359017,19.9285315 27.5929648,19.9731993 L23.680067,21.2596315 L23.680067,25.360134 C23.680067,25.5030709 23.6219989,25.6192071 23.5058626,25.7085427 C23.3718593,25.7978783 23.2423227,25.8157454 23.1172529,25.7621441 L19.2043551,24.5025126 L16.7922948,27.8257956 C16.7029592,27.9419319 16.586823,28 16.4438861,28 C16.3009492,28 16.184813,27.9419319 16.0954774,27.8257956 L13.6834171,24.5025126 L9.77051926,25.7621441 C9.64544947,25.8157454 9.5159129,25.7978783 9.38190955,25.7085427 C9.26577331,25.6192071 9.20770519,25.5030709 9.20770519,25.360134 L9.20770519,21.2596315 L5.29480737,19.9731993 C5.15187046,19.9285315 5.0625349,19.839196 5.02680067,19.7051926 C4.98213289,19.5533222 5,19.4237856 5.08040201,19.3165829 L7.49246231,15.9932998 L5.08040201,12.6700168 C5,12.5538805 4.98213289,12.4243439 5.02680067,12.281407 C5.0625349,12.1474037 5.15187046,12.0580681 5.29480737,12.0134003 L9.20770519,10.7269682 L9.20770519,6.62646566 C9.20770519,6.48352875 9.26577331,6.36739252 9.38190955,6.27805695 C9.5159129,6.18872138 9.64544947,6.17085427 9.77051926,6.22445561 L13.6834171,7.4840871 L16.0954774,4.16080402 C16.1758794,4.05360134 16.2920156,4 16.4438861,4 C16.5957566,4 16.7118928,4.05360134 16.7922948,4.16080402 L19.2043551,7.4840871 L23.1172529,6.22445561 C23.2423227,6.17085427 23.3718593,6.18872138 23.5058626,6.27805695 C23.6219989,6.36739252 23.680067,6.48352875 23.680067,6.62646566 L23.680067,10.7269682 L27.5929648,12.0134003 C27.7359017,12.0580681 27.8252373,12.1474037 27.8609715,12.281407 C27.9056393,12.4243439 27.8877722,12.5538805 27.8073702,12.6700168 L25.3953099,15.9932998 L27.8073702,19.3165829 C27.8877722,19.4237856 27.9056393,19.5533222 27.8609715,19.7051926 L27.8609715,19.7051926 Z" id="path-1"></path>
        <filter x="-50%" y="-50%" width="200%" height="200%" filterUnits="objectBoundingBox" id="filter-2">
            <feMorphology radius="2" operator="dilate" in="SourceAlpha" result="shadowSpreadOuter1"></feMorphology>
            <feOffset dx="0" dy="0" in="shadowSpreadOuter1" result="shadowOffsetOuter1"></feOffset>
            <feGaussianBlur stdDeviation="2" in="shadowOffsetOuter1" result="shadowBlurOuter1"></feGaussianBlur>
            <feComposite in="shadowBlurOuter1" in2="SourceAlpha" operator="out" result="shadowBlurOuter1"></feComposite>
            <feColorMatrix values="0 0 0 0 0   0 0 0 0 0   0 0 0 0 0  0 0 0 0.5 0" type="matrix" in="shadowBlurOuter1"></feColorMatrix>
        </filter>
        <mask id="mask-3" maskContentUnits="userSpaceOnUse" maskUnits="objectBoundingBox" x="-2" y="-2" width="26.8820292" height="28">
            <rect x="3.0028715" y="2" width="26.8820292" height="28" fill="white"></rect>
            <use xlink:href="#path-1" fill="black"></use>
        </mask>
    </defs>
    <g id="Page-1" stroke="none" stroke-width="1" fill="none" fill-rule="evenodd">
        <g id="beach">
            <g id="Shape">
                <use fill="black" fill-opacity="1" filter="url(#filter-2)" xlink:href="#path-1"></use>
                <use fill="#FFFFFF" fill-rule="evenodd" xlink:href="#path-1"></use>
                <use stroke="#FFFFFF" mask="url(#mask-3)" stroke-width="4" xlink:href="#path-1"></use>
            </g>
            <path d="M24.1624791,15.9932998 C24.1624791,14.9480737 23.9592406,13.9497487 23.5527638,12.998325 C23.146287,12.0469012 22.5968733,11.225014 21.9045226,10.5326633 C21.212172,9.84031267 20.3902848,9.29089894 19.438861,8.88442211 C18.4874372,8.47794528 17.4891122,8.27470687 16.4438861,8.27470687 C15.39866,8.27470687 14.400335,8.47794528 13.4489112,8.88442211 C12.4974874,9.29089894 11.6756002,9.84031267 10.9832496,10.5326633 C10.2908989,11.225014 9.7414852,12.0469012 9.33500838,12.998325 C8.92853155,13.9497487 8.72529313,14.9480737 8.72529313,15.9932998 C8.72529313,17.038526 8.92853155,18.0368509 9.33500838,18.9882747 C9.7414852,19.9396985 10.2908989,20.7615857 10.9832496,21.4539363 C11.6756002,22.146287 12.4974874,22.6957007 13.4489112,23.1021776 C14.400335,23.5086544 15.39866,23.7118928 16.4438861,23.7118928 C17.4891122,23.7118928 18.4874372,23.5086544 19.438861,23.1021776 C20.3902848,22.6957007 21.212172,22.146287 21.9045226,21.4539363 C22.5968733,20.7615857 23.146287,19.9396985 23.5527638,18.9882747 C23.9592406,18.0368509 24.1624791,17.038526 24.1624791,15.9932998 L24.1624791,15.9932998 Z M27.8609715,19.7051926 C27.8252373,19.839196 27.7359017,19.9285315 27.5929648,19.9731993 L23.680067,21.2596315 L23.680067,25.360134 C23.680067,25.5030709 23.6219989,25.6192071 23.5058626,25.7085427 C23.3718593,25.7978783 23.2423227,25.8157454 23.1172529,25.7621441 L19.2043551,24.5025126 L16.7922948,27.8257956 C16.7029592,27.9419319 16.586823,28 16.4438861,28 C16.3009492,28 16.184813,27.9419319 16.0954774,27.8257956 L13.6834171,24.5025126 L9.77051926,25.7621441 C9.64544947,25.8157454 9.5159129,25.7978783 9.38190955,25.7085427 C9.26577331,25.6192071 9.20770519,25.5030709 9.20770519,25.360134 L9.20770519,21.2596315 L5.29480737,19.9731993 C5.15187046,19.9285315 5.0625349,19.839196 5.02680067,19.7051926 C4.98213289,19.5533222 5,19.4237856 5.08040201,19.3165829 L7.49246231,15.9932998 L5.08040201,12.6700168 C5,12.5538805 4.98213289,12.4243439 5.02680067,12.281407 C5.0625349,12.1474037 5.15187046,12.0580681 5.29480737,12.0134003 L9.20770519,10.7269682 L9.20770519,6.62646566 C9.20770519,6.48352875 9.26577331,6.36739252 9.38190955,6.27805695 C9.5159129,6.18872138 9.64544947,6.17085427 9.77051926,6.22445561 L13.6834171,7.4840871 L16.0954774,4.16080402 C16.1758794,4.05360134 16.2920156,4 16.4438861,4 C16.5957566,4 16.7118928,4.05360134 16.7922948,4.16080402 L19.2043551,7.4840871 L23.1172529,6.22445561 C23.2423227,6.17085427 23.3718593,6.18872138 23.5058626,6.27805695 C23.6219989,6.36739252 23.680067,6.48352875 23.680067,6.62646566 L23.680067,10.7269682 L27.5929648,12.0134003 C27.7359017,12.0580681 27.8252373,12.1474037 27.8609715,12.281407 C27.9056393,12.4243439 27.8877722,12.5538805 27.8073702,12.6700168 L25.3953099,15.9932998 L27.8073702,19.3165829 C27.8877722,19.4237856 27.9056393,19.5533222 27.8609715,19.7051926 L27.8609715,19.7051926 Z" id="Shape-Copy" fill="#000000"></path>
        </g>
    </g>
</svg>