<?xml version="1.0" encoding="UTF-8" standalone="no"?>
<svg width="32px" height="32px" viewBox="0 0 32 32" version="1.1" xmlns="http://www.w3.org/2000/svg" xmlns:xlink="http://www.w3.org/1999/xlink">
    <!-- Generator: Sketch 39.1 (31720) - http://www.bohemiancoding.com/sketch -->
    <title>Artboard 2 Copy</title>
    <desc>Created with Sketch.</desc>
    <defs>
        <path d="M28,6.30769231 L28,25.6923077 C28,26.3269231 27.8041667,26.8701923 27.4125,27.3221154 C27.0208333,27.7740385 26.55,28 26,28 L6,28 C5.45,28 4.97916667,27.7740385 4.5875,27.3221154 C4.19583333,26.8701923 4,26.3269231 4,25.6923077 L4,6.30769231 C4,5.67307692 4.19583333,5.12980769 4.5875,4.67788462 C4.97916667,4.22596154 5.45,4 6,4 L26,4 C26.55,4 27.0208333,4.22596154 27.4125,4.67788462 C27.8041667,5.12980769 28,5.67307692 28,6.30769231 L28,6.30769231 Z" id="path-1"></path>
        <filter x="-50%" y="-50%" width="200%" height="200%" filterUnits="objectBoundingBox" id="filter-2">
            <feMorphology radius="2" operator="dilate" in="SourceAlpha" result="shadowSpreadOuter1"></feMorphology>
            <feOffset dx="0" dy="0" in="shadowSpreadOuter1" result="shadowOffsetOuter1"></feOffset>
            <feGaussianBlur stdDeviation="2" in="shadowOffsetOuter1" result="shadowBlurOuter1"></feGaussianBlur>
            <feComposite in="shadowBlurOuter1" in2="SourceAlpha" operator="out" result="shadowBlurOuter1"></feComposite>
            <feColorMatrix values="0 0 0 0 0   0 0 0 0 0   0 0 0 0 0  0 0 0 1 0" type="matrix" in="shadowBlurOuter1"></feColorMatrix>
        </filter>
        <mask id="mask-3" maskContentUnits="userSpaceOnUse" maskUnits="objectBoundingBox" x="-2" y="-2" width="28" height="28">
            <rect x="2" y="2" width="28" height="28" fill="white"></rect>
            <use xlink:href="#path-1" fill="black"></use>
        </mask>
    </defs>
    <g id="Page-1" stroke="none" stroke-width="1" fill="none" fill-rule="evenodd">
        <g id="Artboard-2-Copy">
            <g id="Shape">
                <use fill="black" fill-opacity="1" filter="url(#filter-2)" xlink:href="#path-1"></use>
                <use fill="#FFFFFF" fill-rule="evenodd" xlink:href="#path-1"></use>
                <use stroke="#FFFFFF" mask="url(#mask-3)" stroke-width="4" xlink:href="#path-1"></use>
            </g>
            <path d="M8.8,25.2307692 L8.8,23.3846154 C8.8,23.1346154 8.72083333,22.9182692 8.5625,22.7355769 C8.40416667,22.5528846 8.21666667,22.4615385 8,22.4615385 L6.4,22.4615385 C6.18333333,22.4615385 5.99583333,22.5528846 5.8375,22.7355769 C5.67916667,22.9182692 5.6,23.1346154 5.6,23.3846154 L5.6,25.2307692 C5.6,25.4807692 5.67916667,25.6971154 5.8375,25.8798077 C5.99583333,26.0625 6.18333333,26.1538462 6.4,26.1538462 L8,26.1538462 C8.21666667,26.1538462 8.40416667,26.0625 8.5625,25.8798077 C8.72083333,25.6971154 8.8,25.4807692 8.8,25.2307692 L8.8,25.2307692 Z M8.8,19.6923077 L8.8,17.8461538 C8.8,17.5961538 8.72083333,17.3798077 8.5625,17.1971154 C8.40416667,17.0144231 8.21666667,16.9230769 8,16.9230769 L6.4,16.9230769 C6.18333333,16.9230769 5.99583333,17.0144231 5.8375,17.1971154 C5.67916667,17.3798077 5.6,17.5961538 5.6,17.8461538 L5.6,19.6923077 C5.6,19.9423077 5.67916667,20.1586538 5.8375,20.3413462 C5.99583333,20.5240385 6.18333333,20.6153846 6.4,20.6153846 L8,20.6153846 C8.21666667,20.6153846 8.40416667,20.5240385 8.5625,20.3413462 C8.72083333,20.1586538 8.8,19.9423077 8.8,19.6923077 L8.8,19.6923077 Z M8.8,14.1538462 L8.8,12.3076923 C8.8,12.0576923 8.72083333,11.8413462 8.5625,11.6586538 C8.40416667,11.4759615 8.21666667,11.3846154 8,11.3846154 L6.4,11.3846154 C6.18333333,11.3846154 5.99583333,11.4759615 5.8375,11.6586538 C5.67916667,11.8413462 5.6,12.0576923 5.6,12.3076923 L5.6,14.1538462 C5.6,14.4038462 5.67916667,14.6201923 5.8375,14.8028846 C5.99583333,14.9855769 6.18333333,15.0769231 6.4,15.0769231 L8,15.0769231 C8.21666667,15.0769231 8.40416667,14.9855769 8.5625,14.8028846 C8.72083333,14.6201923 8.8,14.4038462 8.8,14.1538462 L8.8,14.1538462 Z M21.6,25.2307692 L21.6,17.8461538 C21.6,17.5961538 21.5208333,17.3798077 21.3625,17.1971154 C21.2041667,17.0144231 21.0166667,16.9230769 20.8,16.9230769 L11.2,16.9230769 C10.9833333,16.9230769 10.7958333,17.0144231 10.6375,17.1971154 C10.4791667,17.3798077 10.4,17.5961538 10.4,17.8461538 L10.4,25.2307692 C10.4,25.4807692 10.4791667,25.6971154 10.6375,25.8798077 C10.7958333,26.0625 10.9833333,26.1538462 11.2,26.1538462 L20.8,26.1538462 C21.0166667,26.1538462 21.2041667,26.0625 21.3625,25.8798077 C21.5208333,25.6971154 21.6,25.4807692 21.6,25.2307692 L21.6,25.2307692 Z M8.8,8.61538462 L8.8,6.76923077 C8.8,6.51923077 8.72083333,6.30288462 8.5625,6.12019231 C8.40416667,5.9375 8.21666667,5.84615385 8,5.84615385 L6.4,5.84615385 C6.18333333,5.84615385 5.99583333,5.9375 5.8375,6.12019231 C5.67916667,6.30288462 5.6,6.51923077 5.6,6.76923077 L5.6,8.61538462 C5.6,8.86538462 5.67916667,9.08173077 5.8375,9.26442308 C5.99583333,9.44711538 6.18333333,9.53846154 6.4,9.53846154 L8,9.53846154 C8.21666667,9.53846154 8.40416667,9.44711538 8.5625,9.26442308 C8.72083333,9.08173077 8.8,8.86538462 8.8,8.61538462 L8.8,8.61538462 Z M26.4,25.2307692 L26.4,23.3846154 C26.4,23.1346154 26.3208333,22.9182692 26.1625,22.7355769 C26.0041667,22.5528846 25.8166667,22.4615385 25.6,22.4615385 L24,22.4615385 C23.7833333,22.4615385 23.5958333,22.5528846 23.4375,22.7355769 C23.2791667,22.9182692 23.2,23.1346154 23.2,23.3846154 L23.2,25.2307692 C23.2,25.4807692 23.2791667,25.6971154 23.4375,25.8798077 C23.5958333,26.0625 23.7833333,26.1538462 24,26.1538462 L25.6,26.1538462 C25.8166667,26.1538462 26.0041667,26.0625 26.1625,25.8798077 C26.3208333,25.6971154 26.4,25.4807692 26.4,25.2307692 L26.4,25.2307692 Z M21.6,14.1538462 L21.6,6.76923077 C21.6,6.51923077 21.5208333,6.30288462 21.3625,6.12019231 C21.2041667,5.9375 21.0166667,5.84615385 20.8,5.84615385 L11.2,5.84615385 C10.9833333,5.84615385 10.7958333,5.9375 10.6375,6.12019231 C10.4791667,6.30288462 10.4,6.51923077 10.4,6.76923077 L10.4,14.1538462 C10.4,14.4038462 10.4791667,14.6201923 10.6375,14.8028846 C10.7958333,14.9855769 10.9833333,15.0769231 11.2,15.0769231 L20.8,15.0769231 C21.0166667,15.0769231 21.2041667,14.9855769 21.3625,14.8028846 C21.5208333,14.6201923 21.6,14.4038462 21.6,14.1538462 L21.6,14.1538462 Z M26.4,19.6923077 L26.4,17.8461538 C26.4,17.5961538 26.3208333,17.3798077 26.1625,17.1971154 C26.0041667,17.0144231 25.8166667,16.9230769 25.6,16.9230769 L24,16.9230769 C23.7833333,16.9230769 23.5958333,17.0144231 23.4375,17.1971154 C23.2791667,17.3798077 23.2,17.5961538 23.2,17.8461538 L23.2,19.6923077 C23.2,19.9423077 23.2791667,20.1586538 23.4375,20.3413462 C23.5958333,20.5240385 23.7833333,20.6153846 24,20.6153846 L25.6,20.6153846 C25.8166667,20.6153846 26.0041667,20.5240385 26.1625,20.3413462 C26.3208333,20.1586538 26.4,19.9423077 26.4,19.6923077 L26.4,19.6923077 Z M26.4,14.1538462 L26.4,12.3076923 C26.4,12.0576923 26.3208333,11.8413462 26.1625,11.6586538 C26.0041667,11.4759615 25.8166667,11.3846154 25.6,11.3846154 L24,11.3846154 C23.7833333,11.3846154 23.5958333,11.4759615 23.4375,11.6586538 C23.2791667,11.8413462 23.2,12.0576923 23.2,12.3076923 L23.2,14.1538462 C23.2,14.4038462 23.2791667,14.6201923 23.4375,14.8028846 C23.5958333,14.9855769 23.7833333,15.0769231 24,15.0769231 L25.6,15.0769231 C25.8166667,15.0769231 26.0041667,14.9855769 26.1625,14.8028846 C26.3208333,14.6201923 26.4,14.4038462 26.4,14.1538462 L26.4,14.1538462 Z M26.4,8.61538462 L26.4,6.76923077 C26.4,6.51923077 26.3208333,6.30288462 26.1625,6.12019231 C26.0041667,5.9375 25.8166667,5.84615385 25.6,5.84615385 L24,5.84615385 C23.7833333,5.84615385 23.5958333,5.9375 23.4375,6.12019231 C23.2791667,6.30288462 23.2,6.51923077 23.2,6.76923077 L23.2,8.61538462 C23.2,8.86538462 23.2791667,9.08173077 23.4375,9.26442308 C23.5958333,9.44711538 23.7833333,9.53846154 24,9.53846154 L25.6,9.53846154 C25.8166667,9.53846154 26.0041667,9.44711538 26.1625,9.26442308 C26.3208333,9.08173077 26.4,8.86538462 26.4,8.61538462 L26.4,8.61538462 Z M28,6.30769231 L28,25.6923077 C28,26.3269231 27.8041667,26.8701923 27.4125,27.3221154 C27.0208333,27.7740385 26.55,28 26,28 L6,28 C5.45,28 4.97916667,27.7740385 4.5875,27.3221154 C4.19583333,26.8701923 4,26.3269231 4,25.6923077 L4,6.30769231 C4,5.67307692 4.19583333,5.12980769 4.5875,4.67788462 C4.97916667,4.22596154 5.45,4 6,4 L26,4 C26.55,4 27.0208333,4.22596154 27.4125,4.67788462 C27.8041667,5.12980769 28,5.67307692 28,6.30769231 L28,6.30769231 Z" id="Shape-Copy" fill="#4990E2"></path>
        </g>
    </g>
</svg>