<?xml version="1.0" encoding="UTF-8" standalone="no"?>
<svg width="32px" height="32px" viewBox="0 0 32 32" version="1.1" xmlns="http://www.w3.org/2000/svg" xmlns:xlink="http://www.w3.org/1999/xlink">
    <!-- Generator: Sketch 39.1 (31720) - http://www.bohemiancoding.com/sketch -->
    <title>food</title>
    <desc>Created with Sketch.</desc>
    <defs>
        <path d="M15.5714286,4.85714286 L15.5714286,13.4285714 C15.5714286,13.9732143 15.4129464,14.46875 15.0959821,14.9151786 C14.7790179,15.3616071 14.3660714,15.6741071 13.8571429,15.8526786 L13.8571429,26.2857143 C13.8571429,26.75 13.6875,27.1517857 13.3482143,27.4910714 C13.0089286,27.8303571 12.6071429,28 12.1428571,28 L10.4285714,28 C9.96428571,28 9.5625,27.8303571 9.22321429,27.4910714 C8.88392857,27.1517857 8.71428571,26.75 8.71428571,26.2857143 L8.71428571,15.8526786 C8.20535714,15.6741071 7.79241071,15.3616071 7.47544643,14.9151786 C7.15848214,14.46875 7,13.9732143 7,13.4285714 L7,4.85714286 C7,4.625 7.08482143,4.42410714 7.25446429,4.25446429 C7.42410714,4.08482143 7.625,4 7.85714286,4 C8.08928571,4 8.29017857,4.08482143 8.45982143,4.25446429 C8.62946429,4.42410714 8.71428571,4.625 8.71428571,4.85714286 L8.71428571,10.4285714 C8.71428571,10.6607143 8.79910714,10.8616071 8.96875,11.03125 C9.13839286,11.2008929 9.33928571,11.2857143 9.57142857,11.2857143 C9.80357143,11.2857143 10.0044643,11.2008929 10.1741071,11.03125 C10.34375,10.8616071 10.4285714,10.6607143 10.4285714,10.4285714 L10.4285714,4.85714286 C10.4285714,4.625 10.5133929,4.42410714 10.6830357,4.25446429 C10.8526786,4.08482143 11.0535714,4 11.2857143,4 C11.5178571,4 11.71875,4.08482143 11.8883929,4.25446429 C12.0580357,4.42410714 12.1428571,4.625 12.1428571,4.85714286 L12.1428571,10.4285714 C12.1428571,10.6607143 12.2276786,10.8616071 12.3973214,11.03125 C12.5669643,11.2008929 12.7678571,11.2857143 13,11.2857143 C13.2321429,11.2857143 13.4330357,11.2008929 13.6026786,11.03125 C13.7723214,10.8616071 13.8571429,10.6607143 13.8571429,10.4285714 L13.8571429,4.85714286 C13.8571429,4.625 13.9419643,4.42410714 14.1116071,4.25446429 C14.28125,4.08482143 14.4821429,4 14.7142857,4 C14.9464286,4 15.1473214,4.08482143 15.3169643,4.25446429 C15.4866071,4.42410714 15.5714286,4.625 15.5714286,4.85714286 L15.5714286,4.85714286 Z M25.8571429,4.85714286 L25.8571429,26.2857143 C25.8571429,26.75 25.6875,27.1517857 25.3482143,27.4910714 C25.0089286,27.8303571 24.6071429,28 24.1428571,28 L22.4285714,28 C21.9642857,28 21.5625,27.8303571 21.2232143,27.4910714 C20.8839286,27.1517857 20.7142857,26.75 20.7142857,26.2857143 L20.7142857,19.4285714 L17.7142857,19.4285714 C17.5982143,19.4285714 17.4977679,19.3861607 17.4129464,19.3013393 C17.328125,19.2165179 17.2857143,19.1160714 17.2857143,19 L17.2857143,8.28571429 C17.2857143,7.10714286 17.7053571,6.09821429 18.5446429,5.25892857 C19.3839286,4.41964286 20.3928571,4 21.5714286,4 L25,4 C25.2321429,4 25.4330357,4.08482143 25.6026786,4.25446429 C25.7723214,4.42410714 25.8571429,4.625 25.8571429,4.85714286 L25.8571429,4.85714286 Z" id="path-1"></path>
        <filter x="-50%" y="-50%" width="200%" height="200%" filterUnits="objectBoundingBox" id="filter-2">
            <feMorphology radius="2" operator="dilate" in="SourceAlpha" result="shadowSpreadOuter1"></feMorphology>
            <feOffset dx="0" dy="0" in="shadowSpreadOuter1" result="shadowOffsetOuter1"></feOffset>
            <feGaussianBlur stdDeviation="2" in="shadowOffsetOuter1" result="shadowBlurOuter1"></feGaussianBlur>
            <feComposite in="shadowBlurOuter1" in2="SourceAlpha" operator="out" result="shadowBlurOuter1"></feComposite>
            <feColorMatrix values="0 0 0 0 0   0 0 0 0 0   0 0 0 0 0  0 0 0 0.5 0" type="matrix" in="shadowBlurOuter1"></feColorMatrix>
        </filter>
        <mask id="mask-3" maskContentUnits="userSpaceOnUse" maskUnits="objectBoundingBox" x="-2" y="-2" width="22.8571429" height="28">
            <rect x="5" y="2" width="22.8571429" height="28" fill="white"></rect>
            <use xlink:href="#path-1" fill="black"></use>
        </mask>
    </defs>
    <g id="Page-1" stroke="none" stroke-width="1" fill="none" fill-rule="evenodd">
        <g id="food">
            <g id="Shape">
                <use fill="black" fill-opacity="1" filter="url(#filter-2)" xlink:href="#path-1"></use>
                <use fill="#FFFFFF" fill-rule="evenodd" xlink:href="#path-1"></use>
                <use stroke="#FFFFFF" mask="url(#mask-3)" stroke-width="4" xlink:href="#path-1"></use>
            </g>
            <path d="M15.5714286,4.85714286 L15.5714286,13.4285714 C15.5714286,13.9732143 15.4129464,14.46875 15.0959821,14.9151786 C14.7790179,15.3616071 14.3660714,15.6741071 13.8571429,15.8526786 L13.8571429,26.2857143 C13.8571429,26.75 13.6875,27.1517857 13.3482143,27.4910714 C13.0089286,27.8303571 12.6071429,28 12.1428571,28 L10.4285714,28 C9.96428571,28 9.5625,27.8303571 9.22321429,27.4910714 C8.88392857,27.1517857 8.71428571,26.75 8.71428571,26.2857143 L8.71428571,15.8526786 C8.20535714,15.6741071 7.79241071,15.3616071 7.47544643,14.9151786 C7.15848214,14.46875 7,13.9732143 7,13.4285714 L7,4.85714286 C7,4.625 7.08482143,4.42410714 7.25446429,4.25446429 C7.42410714,4.08482143 7.625,4 7.85714286,4 C8.08928571,4 8.29017857,4.08482143 8.45982143,4.25446429 C8.62946429,4.42410714 8.71428571,4.625 8.71428571,4.85714286 L8.71428571,10.4285714 C8.71428571,10.6607143 8.79910714,10.8616071 8.96875,11.03125 C9.13839286,11.2008929 9.33928571,11.2857143 9.57142857,11.2857143 C9.80357143,11.2857143 10.0044643,11.2008929 10.1741071,11.03125 C10.34375,10.8616071 10.4285714,10.6607143 10.4285714,10.4285714 L10.4285714,4.85714286 C10.4285714,4.625 10.5133929,4.42410714 10.6830357,4.25446429 C10.8526786,4.08482143 11.0535714,4 11.2857143,4 C11.5178571,4 11.71875,4.08482143 11.8883929,4.25446429 C12.0580357,4.42410714 12.1428571,4.625 12.1428571,4.85714286 L12.1428571,10.4285714 C12.1428571,10.6607143 12.2276786,10.8616071 12.3973214,11.03125 C12.5669643,11.2008929 12.7678571,11.2857143 13,11.2857143 C13.2321429,11.2857143 13.4330357,11.2008929 13.6026786,11.03125 C13.7723214,10.8616071 13.8571429,10.6607143 13.8571429,10.4285714 L13.8571429,4.85714286 C13.8571429,4.625 13.9419643,4.42410714 14.1116071,4.25446429 C14.28125,4.08482143 14.4821429,4 14.7142857,4 C14.9464286,4 15.1473214,4.08482143 15.3169643,4.25446429 C15.4866071,4.42410714 15.5714286,4.625 15.5714286,4.85714286 L15.5714286,4.85714286 Z M25.8571429,4.85714286 L25.8571429,26.2857143 C25.8571429,26.75 25.6875,27.1517857 25.3482143,27.4910714 C25.0089286,27.8303571 24.6071429,28 24.1428571,28 L22.4285714,28 C21.9642857,28 21.5625,27.8303571 21.2232143,27.4910714 C20.8839286,27.1517857 20.7142857,26.75 20.7142857,26.2857143 L20.7142857,19.4285714 L17.7142857,19.4285714 C17.5982143,19.4285714 17.4977679,19.3861607 17.4129464,19.3013393 C17.328125,19.2165179 17.2857143,19.1160714 17.2857143,19 L17.2857143,8.28571429 C17.2857143,7.10714286 17.7053571,6.09821429 18.5446429,5.25892857 C19.3839286,4.41964286 20.3928571,4 21.5714286,4 L25,4 C25.2321429,4 25.4330357,4.08482143 25.6026786,4.25446429 C25.7723214,4.42410714 25.8571429,4.625 25.8571429,4.85714286 L25.8571429,4.85714286 Z" id="Shape-Copy" fill="#000000"></path>
        </g>
    </g>
</svg>