<?xml version="1.0" encoding="UTF-8" standalone="no"?>
<svg width="32px" height="32px" viewBox="0 0 32 32" version="1.1" xmlns="http://www.w3.org/2000/svg" xmlns:xlink="http://www.w3.org/1999/xlink">
    <!-- Generator: Sketch 39.1 (31720) - http://www.bohemiancoding.com/sketch -->
    <title>Artboard 3</title>
    <desc>Created with Sketch.</desc>
    <defs>
        <path d="M19.7142857,19.7142857 C19.7142857,19.9464286 19.6294643,20.1473214 19.4598214,20.3169643 C19.2901786,20.4866071 19.0892857,20.5714286 18.8571429,20.5714286 L12.6696429,20.5714286 C12.6785714,20.7232143 12.7053571,21.1138393 12.75,21.7433036 C12.7946429,22.3727679 12.8169643,22.8571429 12.8169643,23.1964286 C12.8169643,23.4196429 12.7366071,23.609375 12.5758929,23.765625 C12.4151786,23.921875 12.2232143,24 12,24 L7.71428571,24 C7.49107143,24 7.29910714,23.921875 7.13839286,23.765625 C6.97767857,23.609375 6.89732143,23.4196429 6.89732143,23.1964286 C6.89732143,22.8571429 6.91964286,22.3727679 6.96428571,21.7433036 C7.00892857,21.1138393 7.03571429,20.7232143 7.04464286,20.5714286 L0.857142857,20.5714286 C0.625,20.5714286 0.424107143,20.4866071 0.254464286,20.3169643 C0.0848214286,20.1473214 0,19.9464286 0,19.7142857 C0,19.4821429 0.0848214286,19.28125 0.254464286,19.1116071 L5.63839286,13.7142857 L2.57142857,13.7142857 C2.33928571,13.7142857 2.13839286,13.6294643 1.96875,13.4598214 C1.79910714,13.2901786 1.71428571,13.0892857 1.71428571,12.8571429 C1.71428571,12.625 1.79910714,12.4241071 1.96875,12.2544643 L7.35267857,6.85714286 L4.71428571,6.85714286 C4.48214286,6.85714286 4.28125,6.77232143 4.11160714,6.60267857 C3.94196429,6.43303571 3.85714286,6.23214286 3.85714286,6 C3.85714286,5.76785714 3.94196429,5.56696429 4.11160714,5.39732143 L9.25446429,0.254464286 C9.42410714,0.0848214286 9.625,0 9.85714286,0 C10.0892857,0 10.2901786,0.0848214286 10.4598214,0.254464286 L15.6026786,5.39732143 C15.7723214,5.56696429 15.8571429,5.76785714 15.8571429,6 C15.8571429,6.23214286 15.7723214,6.43303571 15.6026786,6.60267857 C15.4330357,6.77232143 15.2321429,6.85714286 15,6.85714286 L12.3616071,6.85714286 L17.7455357,12.2544643 C17.9151786,12.4241071 18,12.625 18,12.8571429 C18,13.0892857 17.9151786,13.2901786 17.7455357,13.4598214 C17.5758929,13.6294643 17.375,13.7142857 17.1428571,13.7142857 L14.0758929,13.7142857 L19.4598214,19.1116071 C19.6294643,19.28125 19.7142857,19.4821429 19.7142857,19.7142857 L19.7142857,19.7142857 Z" id="path-1"></path>
        <filter x="-50%" y="-50%" width="200%" height="200%" filterUnits="objectBoundingBox" id="filter-2">
            <feMorphology radius="2" operator="dilate" in="SourceAlpha" result="shadowSpreadOuter1"></feMorphology>
            <feOffset dx="0" dy="0" in="shadowSpreadOuter1" result="shadowOffsetOuter1"></feOffset>
            <feMorphology radius="1" operator="erode" in="SourceAlpha" result="shadowInner"></feMorphology>
            <feOffset dx="0" dy="0" in="shadowInner" result="shadowInner"></feOffset>
            <feComposite in="shadowOffsetOuter1" in2="shadowInner" operator="out" result="shadowOffsetOuter1"></feComposite>
            <feGaussianBlur stdDeviation="2" in="shadowOffsetOuter1" result="shadowBlurOuter1"></feGaussianBlur>
            <feColorMatrix values="0 0 0 0 0   0 0 0 0 0   0 0 0 0 0  0 0 0 0.5 0" type="matrix" in="shadowBlurOuter1"></feColorMatrix>
        </filter>
        <mask id="mask-3" maskContentUnits="userSpaceOnUse" maskUnits="objectBoundingBox" x="-2" y="-2" width="23.7142857" height="28">
            <rect x="-2" y="-2" width="23.7142857" height="28" fill="white"></rect>
            <use xlink:href="#path-1" fill="black"></use>
        </mask>
    </defs>
    <g id="Page-1" stroke="none" stroke-width="1" fill="none" fill-rule="evenodd">
        <g id="Artboard-3">
            <g id="Group" transform="translate(6.000000, 4.000000)">
                <g id="Shape">
                    <use fill="black" fill-opacity="1" filter="url(#filter-2)" xlink:href="#path-1"></use>
                    <use stroke="#FFFFFF" mask="url(#mask-3)" stroke-width="4" xlink:href="#path-1"></use>
                </g>
                <path d="M19.7142857,19.7142857 C19.7142857,19.9464286 19.6294643,20.1473214 19.4598214,20.3169643 C19.2901786,20.4866071 19.0892857,20.5714286 18.8571429,20.5714286 L12.6696429,20.5714286 C12.6785714,20.7232143 12.7053571,21.1138393 12.75,21.7433036 C12.7946429,22.3727679 12.8169643,22.8571429 12.8169643,23.1964286 C12.8169643,23.4196429 12.7366071,23.609375 12.5758929,23.765625 C12.4151786,23.921875 12.2232143,24 12,24 L7.71428571,24 C7.49107143,24 7.29910714,23.921875 7.13839286,23.765625 C6.97767857,23.609375 6.89732143,23.4196429 6.89732143,23.1964286 C6.89732143,22.8571429 6.91964286,22.3727679 6.96428571,21.7433036 C7.00892857,21.1138393 7.03571429,20.7232143 7.04464286,20.5714286 L0.857142857,20.5714286 C0.625,20.5714286 0.424107143,20.4866071 0.254464286,20.3169643 C0.0848214286,20.1473214 0,19.9464286 0,19.7142857 C0,19.4821429 0.0848214286,19.28125 0.254464286,19.1116071 L5.63839286,13.7142857 L2.57142857,13.7142857 C2.33928571,13.7142857 2.13839286,13.6294643 1.96875,13.4598214 C1.79910714,13.2901786 1.71428571,13.0892857 1.71428571,12.8571429 C1.71428571,12.625 1.79910714,12.4241071 1.96875,12.2544643 L7.35267857,6.85714286 L4.71428571,6.85714286 C4.48214286,6.85714286 4.28125,6.77232143 4.11160714,6.60267857 C3.94196429,6.43303571 3.85714286,6.23214286 3.85714286,6 C3.85714286,5.76785714 3.94196429,5.56696429 4.11160714,5.39732143 L9.25446429,0.254464286 C9.42410714,0.0848214286 9.625,0 9.85714286,0 C10.0892857,0 10.2901786,0.0848214286 10.4598214,0.254464286 L15.6026786,5.39732143 C15.7723214,5.56696429 15.8571429,5.76785714 15.8571429,6 C15.8571429,6.23214286 15.7723214,6.43303571 15.6026786,6.60267857 C15.4330357,6.77232143 15.2321429,6.85714286 15,6.85714286 L12.3616071,6.85714286 L17.7455357,12.2544643 C17.9151786,12.4241071 18,12.625 18,12.8571429 C18,13.0892857 17.9151786,13.2901786 17.7455357,13.4598214 C17.5758929,13.6294643 17.375,13.7142857 17.1428571,13.7142857 L14.0758929,13.7142857 L19.4598214,19.1116071 C19.6294643,19.28125 19.7142857,19.4821429 19.7142857,19.7142857 L19.7142857,19.7142857 Z" id="Shape-Copy" fill="#000000"></path>
            </g>
        </g>
    </g>
</svg>