<?xml version="1.0" encoding="UTF-8" standalone="no"?>
<svg width="32px" height="32px" viewBox="0 0 32 32" version="1.1" xmlns="http://www.w3.org/2000/svg" xmlns:xlink="http://www.w3.org/1999/xlink">
    <!-- Generator: Sketch 39.1 (31720) - http://www.bohemiancoding.com/sketch -->
    <title>sport-hover-active</title>
    <desc>Created with Sketch.</desc>
    <defs>
        <path d="M16,4 C17.625,4 19.1785714,4.31696429 20.6607143,4.95089286 C22.1428571,5.58482143 23.4196429,6.4375 24.4910714,7.50892857 C25.5625,8.58035714 26.4151786,9.85714286 27.0491071,11.3392857 C27.6830357,12.8214286 28,14.375 28,16 C28,17.625 27.6830357,19.1785714 27.0491071,20.6607143 C26.4151786,22.1428571 25.5625,23.4196429 24.4910714,24.4910714 C23.4196429,25.5625 22.1428571,26.4151786 20.6607143,27.0491071 C19.1785714,27.6830357 17.625,28 16,28 C14.375,28 12.8214286,27.6830357 11.3392857,27.0491071 C9.85714286,26.4151786 8.58035714,25.5625 7.50892857,24.4910714 C6.4375,23.4196429 5.58482143,22.1428571 4.95089286,20.6607143 C4.31696429,19.1785714 4,17.625 4,16 C4,14.375 4.31696429,12.8214286 4.95089286,11.3392857 C5.58482143,9.85714286 6.4375,8.58035714 7.50892857,7.50892857 C8.58035714,6.4375 9.85714286,5.58482143 11.3392857,4.95089286 C12.8214286,4.31696429 14.375,4 16,4 L16,4 Z" id="path-1"></path>
        <filter x="-50%" y="-50%" width="200%" height="200%" filterUnits="objectBoundingBox" id="filter-2">
            <feMorphology radius="2" operator="dilate" in="SourceAlpha" result="shadowSpreadOuter1"></feMorphology>
            <feOffset dx="0" dy="0" in="shadowSpreadOuter1" result="shadowOffsetOuter1"></feOffset>
            <feGaussianBlur stdDeviation="2" in="shadowOffsetOuter1" result="shadowBlurOuter1"></feGaussianBlur>
            <feComposite in="shadowBlurOuter1" in2="SourceAlpha" operator="out" result="shadowBlurOuter1"></feComposite>
            <feColorMatrix values="0 0 0 0 0   0 0 0 0 0   0 0 0 0 0  0 0 0 0.5 0" type="matrix" in="shadowBlurOuter1"></feColorMatrix>
        </filter>
        <mask id="mask-3" maskContentUnits="userSpaceOnUse" maskUnits="objectBoundingBox" x="-2" y="-2" width="28" height="28">
            <rect x="2" y="2" width="28" height="28" fill="white"></rect>
            <use xlink:href="#path-1" fill="black"></use>
        </mask>
    </defs>
    <g id="Page-1" stroke="none" stroke-width="1" fill="none" fill-rule="evenodd">
        <g id="sport-hover-active">
            <g id="Shape">
                <use fill="black" fill-opacity="1" filter="url(#filter-2)" xlink:href="#path-1"></use>
                <use fill="#FFFFFF" fill-rule="evenodd" xlink:href="#path-1"></use>
                <use stroke="#FFFFFF" mask="url(#mask-3)" stroke-width="4" xlink:href="#path-1"></use>
            </g>
            <path d="M12.15625,14.9285714 L16,12.1428571 L19.84375,14.9285714 L18.3839286,19.4285714 L13.6294643,19.4285714 L12.15625,14.9285714 Z M16,4 C17.625,4 19.1785714,4.31696429 20.6607143,4.95089286 C22.1428571,5.58482143 23.4196429,6.4375 24.4910714,7.50892857 C25.5625,8.58035714 26.4151786,9.85714286 27.0491071,11.3392857 C27.6830357,12.8214286 28,14.375 28,16 C28,17.625 27.6830357,19.1785714 27.0491071,20.6607143 C26.4151786,22.1428571 25.5625,23.4196429 24.4910714,24.4910714 C23.4196429,25.5625 22.1428571,26.4151786 20.6607143,27.0491071 C19.1785714,27.6830357 17.625,28 16,28 C14.375,28 12.8214286,27.6830357 11.3392857,27.0491071 C9.85714286,26.4151786 8.58035714,25.5625 7.50892857,24.4910714 C6.4375,23.4196429 5.58482143,22.1428571 4.95089286,20.6607143 C4.31696429,19.1785714 4,17.625 4,16 C4,14.375 4.31696429,12.8214286 4.95089286,11.3392857 C5.58482143,9.85714286 6.4375,8.58035714 7.50892857,7.50892857 C8.58035714,6.4375 9.85714286,5.58482143 11.3392857,4.95089286 C12.8214286,4.31696429 14.375,4 16,4 L16,4 Z M24.2901786,22.0803571 C25.6205357,20.2678571 26.2857143,18.2410714 26.2857143,16 L26.2857143,15.9598214 L24.9196429,17.1517857 L21.7053571,14.1517857 L22.5491071,9.82589286 L24.34375,9.98660714 C23.0044643,8.14732143 21.2678571,6.88839286 19.1339286,6.20982143 L19.84375,7.87053571 L16,10 L12.15625,7.87053571 L12.8660714,6.20982143 C10.7321429,6.88839286 8.99553571,8.14732143 7.65625,9.98660714 L9.46428571,9.82589286 L10.2946429,14.1517857 L7.08035714,17.1517857 L5.71428571,15.9598214 L5.71428571,16 C5.71428571,18.2410714 6.37946429,20.2678571 7.70982143,22.0803571 L8.11160714,20.3125 L12.4776786,20.8482143 L14.3392857,24.8392857 L12.7857143,25.7633929 C13.8303571,26.1116071 14.9017857,26.2857143 16,26.2857143 C17.0982143,26.2857143 18.1696429,26.1116071 19.2142857,25.7633929 L17.6607143,24.8392857 L19.5223214,20.8482143 L23.8883929,20.3125 L24.2901786,22.0803571 Z" id="Shape-Copy" fill="#4990E2"></path>
        </g>
    </g>
</svg>