<?xml version="1.0" encoding="UTF-8" standalone="no"?>
<svg width="32px" height="32px" viewBox="0 0 32 32" version="1.1" xmlns="http://www.w3.org/2000/svg" xmlns:xlink="http://www.w3.org/1999/xlink">
    <!-- Generator: Sketch 39.1 (31720) - http://www.bohemiancoding.com/sketch -->
    <title>Artboard Copy</title>
    <desc>Created with Sketch.</desc>
    <defs>
        <path d="M24,1.71948382 L24,18.914322 C24,19.3889712 23.8325893,19.7942141 23.4977679,20.1300508 C23.1629464,20.4658875 22.7589286,20.6338058 22.2857143,20.6338058 L1.71428571,20.6338058 C1.24107143,20.6338058 0.837053571,20.4658875 0.502232143,20.1300508 C0.167410714,19.7942141 0,19.3889712 0,18.914322 L0,1.71948382 C0,1.24483464 0.167410714,0.839591708 0.502232143,0.503755025 C0.837053571,0.167918342 1.24107143,0 1.71428571,0 L22.2857143,0 C22.7589286,0 23.1629464,0.167918342 23.4977679,0.503755025 C23.8325893,0.839591708 24,1.24483464 24,1.71948382 L24,1.71948382 Z" id="path-1"></path>
        <filter x="-50%" y="-50%" width="200%" height="200%" filterUnits="objectBoundingBox" id="filter-2">
            <feMorphology radius="2" operator="dilate" in="SourceAlpha" result="shadowSpreadOuter1"></feMorphology>
            <feOffset dx="0" dy="0" in="shadowSpreadOuter1" result="shadowOffsetOuter1"></feOffset>
            <feGaussianBlur stdDeviation="2" in="shadowOffsetOuter1" result="shadowBlurOuter1"></feGaussianBlur>
            <feComposite in="shadowBlurOuter1" in2="SourceAlpha" operator="out" result="shadowBlurOuter1"></feComposite>
            <feColorMatrix values="0 0 0 0 0   0 0 0 0 0   0 0 0 0 0  0 0 0 0.5 0" type="matrix" in="shadowBlurOuter1"></feColorMatrix>
        </filter>
        <mask id="mask-3" maskContentUnits="userSpaceOnUse" maskUnits="objectBoundingBox" x="-2" y="-2" width="28" height="24.6338058">
            <rect x="-2" y="-2" width="28" height="24.6338058" fill="white"></rect>
            <use xlink:href="#path-1" fill="black"></use>
        </mask>
    </defs>
    <g id="Page-1" stroke="none" stroke-width="1" fill="none" fill-rule="evenodd">
        <g id="Artboard-Copy">
            <g id="Group" transform="translate(4.000000, 5.000000)">
                <g id="Shape">
                    <use fill="black" fill-opacity="1" filter="url(#filter-2)" xlink:href="#path-1"></use>
                    <use fill="#FFFFFF" fill-rule="evenodd" xlink:href="#path-1"></use>
                    <use stroke="#FFFFFF" mask="url(#mask-3)" stroke-width="4" xlink:href="#path-1"></use>
                </g>
                <path d="M12.4285714,9.457161 C12.4285714,9.33178197 12.3883929,9.22879205 12.3080357,9.14819125 C12.2276786,9.06759045 12.125,9.02729004 12,9.02729004 C11.4107143,9.02729004 10.90625,9.2377477 10.4866071,9.65866301 C10.0669643,10.0795783 9.85714286,10.5855723 9.85714286,11.1766448 C9.85714286,11.3020238 9.89732143,11.4050138 9.97767857,11.4856146 C10.0580357,11.5662154 10.1607143,11.6065158 10.2857143,11.6065158 C10.4107143,11.6065158 10.5133929,11.5662154 10.59375,11.4856146 C10.6741071,11.4050138 10.7142857,11.3020238 10.7142857,11.1766448 C10.7142857,10.818419 10.8392857,10.5139271 11.0892857,10.263169 C11.3392857,10.012411 11.6428571,9.88703195 12,9.88703195 C12.125,9.88703195 12.2276786,9.84673155 12.3080357,9.76613075 C12.3883929,9.68552994 12.4285714,9.58254003 12.4285714,9.457161 L12.4285714,9.457161 Z M15.4285714,11.2035118 C15.4285714,12.1528101 15.09375,12.963296 14.4241071,13.6349693 C13.7544643,14.3066427 12.9464286,14.6424794 12,14.6424794 C11.0535714,14.6424794 10.2455357,14.3066427 9.57589286,13.6349693 C8.90625,12.963296 8.57142857,12.1528101 8.57142857,11.2035118 C8.57142857,10.2542134 8.90625,9.44372753 9.57589286,8.77205417 C10.2455357,8.1003808 11.0535714,7.76454412 12,7.76454412 C12.9464286,7.76454412 13.7544643,8.1003808 14.4241071,8.77205417 C15.09375,9.44372753 15.4285714,10.2542134 15.4285714,11.2035118 L15.4285714,11.2035118 Z M1.71428571,18.914322 L22.2857143,18.914322 L22.2857143,17.1948382 L1.71428571,17.1948382 L1.71428571,18.914322 L1.71428571,18.914322 Z M17.1428571,11.2035118 C17.1428571,9.77956421 16.640625,8.56383542 15.6361607,7.55632537 C14.6316964,6.54881532 13.4196429,6.0450603 12,6.0450603 C10.5803571,6.0450603 9.36830357,6.54881532 8.36383929,7.55632537 C7.359375,8.56383542 6.85714286,9.77956421 6.85714286,11.2035118 C6.85714286,12.6274593 7.359375,13.8431881 8.36383929,14.8506981 C9.36830357,15.8582082 10.5803571,16.3619632 12,16.3619632 C13.4196429,16.3619632 14.6316964,15.8582082 15.6361607,14.8506981 C16.640625,13.8431881 17.1428571,12.6274593 17.1428571,11.2035118 L17.1428571,11.2035118 Z M3.42857143,2.57922573 L8.57142857,2.57922573 L8.57142857,0.859741909 L3.42857143,0.859741909 L3.42857143,2.57922573 L3.42857143,2.57922573 Z M1.71428571,5.15845145 L22.2857143,5.15845145 L22.2857143,1.71948382 L11.1964286,1.71948382 L10.3392857,3.43896764 L1.71428571,3.43896764 L1.71428571,5.15845145 L1.71428571,5.15845145 Z M24,1.71948382 L24,18.914322 C24,19.3889712 23.8325893,19.7942141 23.4977679,20.1300508 C23.1629464,20.4658875 22.7589286,20.6338058 22.2857143,20.6338058 L1.71428571,20.6338058 C1.24107143,20.6338058 0.837053571,20.4658875 0.502232143,20.1300508 C0.167410714,19.7942141 0,19.3889712 0,18.914322 L0,1.71948382 C0,1.24483464 0.167410714,0.839591708 0.502232143,0.503755025 C0.837053571,0.167918342 1.24107143,0 1.71428571,0 L22.2857143,0 C22.7589286,0 23.1629464,0.167918342 23.4977679,0.503755025 C23.8325893,0.839591708 24,1.24483464 24,1.71948382 L24,1.71948382 Z" id="Shape-Copy" fill="#4990E2"></path>
            </g>
        </g>
    </g>
</svg>